<svg id="Layer_1" enable-background="new 0 0 511.343 511.343" height="512" viewBox="0 0 511.343 511.343" width="512" xmlns="http://www.w3.org/2000/svg"><path d="m490.333 128.002h-43v-64.33c0-11.598-9.402-21-21-21h-71.096l-4.187-25.119c-1.688-10.126-10.449-17.548-20.714-17.548h-64c-6.379 0-12.413 2.9-16.398 7.882l-36.361 45.452h-64.577c-11.589 0-21 9.403-21 21.001l.002 53.662h-37.476l-5.943-66.208c-.972-10.826-10.045-19.122-20.916-19.122h-42.667c-11.598 0-21 9.402-21 21s9.402 21 21 21h23.467c.402 4.474 24.092 268.59 24.208 269.618 2.551 22.11 13.851 41.267 30.19 54.21-32.546 41.562-2.811 102.838 50.135 102.838 43.966 0 74.925-43.853 59.865-85.334h114.936c-15.05 41.455 15.876 85.334 59.865 85.334 35.106 0 63.667-28.561 63.667-63.667s-28.561-63.667-63.667-63.667h-234.524c-15.952 0-29.853-9.624-35.854-23.646l335.607-19.724c9.163-.538 16.915-6.966 19.141-15.87l42.67-170.67c3.316-13.261-6.736-26.092-20.373-26.092zm-85-43.331v43.33h-35.874l-7.222-43.33zm-128.903-42.667h36.117l14.333 85.997h-74.33l-6.806-47.639zm-106.429 53.334h35.456l4.666 32.663h-40.121zm-21.001 374c-11.947 0-21.667-9.72-21.667-21.667s9.72-21.667 21.667-21.667 21.667 9.72 21.667 21.667-9.72 21.667-21.667 21.667zm234.667 0c-11.947 0-21.667-9.72-21.667-21.667s9.72-21.667 21.667-21.667 21.667 9.72 21.667 21.667-9.721 21.667-21.667 21.667zm47.365-169.725-323.396 19.005-13.34-148.617h369.141z"/></svg>